<?xml version="1.0" encoding="UTF-8"?>
<svg xmlns="http://www.w3.org/2000/svg" width="1200" height="800" viewBox="0 0 1200 800">
  <defs>
    <linearGradient id="bg" x1="0" x2="1" y1="0" y2="1">
      <stop offset="0" stop-color="#0b0f19"/>
      <stop offset="1" stop-color="#101a2c"/>
    </linearGradient>
    <linearGradient id="acc" x1="0" x2="1">
      <stop offset="0" stop-color="#7cdbff" stop-opacity="0.7"/>
      <stop offset="1" stop-color="#b3ffcc" stop-opacity="0.55"/>
    </linearGradient>
  </defs>
  <rect width="1200" height="800" fill="url(#bg)"/>
  <g opacity="0.9">
    <rect x="90" y="120" width="1020" height="420" rx="26" fill="#ffffff" opacity="0.06" stroke="#ffffff" stroke-opacity="0.14"/>
    <rect x="140" y="170" width="920" height="320" rx="18" fill="#000000" opacity="0.18"/>
    <path d="M140 420 C260 340 340 460 470 400 C620 330 700 470 860 390 C980 340 1040 420 1060 430 L1060 490 L140 490 Z" fill="url(#acc)" opacity="0.35"/>
    <circle cx="280" cy="260" r="26" fill="#7cdbff" opacity="0.35"/>
    <circle cx="360" cy="300" r="18" fill="#b3ffcc" opacity="0.30"/>
    <circle cx="430" cy="250" r="14" fill="#ffffff" opacity="0.18"/>
    <rect x="140" y="520" width="420" height="16" rx="8" fill="#ffffff" opacity="0.10"/>
    <rect x="140" y="548" width="320" height="16" rx="8" fill="#ffffff" opacity="0.08"/>
  </g>
  <g transform="translate(90 595)">
    <rect x="0" y="0" width="1020" height="130" rx="26" fill="#ffffff" opacity="0.05" stroke="#ffffff" stroke-opacity="0.12"/>
    <rect x="34" y="34" width="310" height="60" rx="22" fill="#7cdbff" opacity="0.12"/>
    <rect x="370" y="34" width="290" height="60" rx="22" fill="#b3ffcc" opacity="0.10"/>
    <rect x="686" y="34" width="300" height="60" rx="22" fill="#ffffff" opacity="0.05"/>
    <text x="52" y="72" fill="#ffffff" opacity="0.84" font-size="22" font-family="ui-sans-serif, system-ui, -apple-system" font-weight="650">Tasks</text>
    <text x="392" y="72" fill="#ffffff" opacity="0.80" font-size="22" font-family="ui-sans-serif, system-ui, -apple-system" font-weight="650">Collaboration</text>
    <text x="708" y="72" fill="#ffffff" opacity="0.70" font-size="22" font-family="ui-sans-serif, system-ui, -apple-system" font-weight="650">Reflection</text>
  </g>
</svg>
