<?xml version="1.0" encoding="UTF-8"?>
<svg xmlns="http://www.w3.org/2000/svg" width="1600" height="900" viewBox="0 0 1600 900">
  <defs>
    <linearGradient id="g1" x1="0" x2="1" y1="0" y2="1">
      <stop offset="0" stop-color="#7cdbff" stop-opacity="0.85"/>
      <stop offset="0.55" stop-color="#b3ffcc" stop-opacity="0.55"/>
      <stop offset="1" stop-color="#ffffff" stop-opacity="0.10"/>
    </linearGradient>
    <radialGradient id="g2" cx="30%" cy="20%" r="70%">
      <stop offset="0" stop-color="#ffffff" stop-opacity="0.22"/>
      <stop offset="1" stop-color="#000000" stop-opacity="0"/>
    </radialGradient>
    <filter id="blur" x="-20%" y="-20%" width="140%" height="140%">
      <feGaussianBlur stdDeviation="14"/>
    </filter>
  </defs>
  <rect width="1600" height="900" fill="#0b0f19"/>
  <path d="M0,620 C250,520 420,740 700,640 C980,540 1140,720 1600,600 L1600,900 L0,900 Z" fill="url(#g1)" opacity="0.9"/>
  <circle cx="380" cy="260" r="210" fill="url(#g2)" filter="url(#blur)"/>
  <circle cx="1180" cy="220" r="240" fill="url(#g2)" filter="url(#blur)"/>
  <g opacity="0.7">
    <rect x="200" y="520" width="360" height="40" rx="16" fill="#ffffff" opacity="0.08"/>
    <rect x="200" y="580" width="520" height="40" rx="16" fill="#ffffff" opacity="0.07"/>
    <rect x="200" y="640" width="420" height="40" rx="16" fill="#ffffff" opacity="0.06"/>
  </g>
  <g transform="translate(980 460)" opacity="0.9">
    <rect x="0" y="0" width="440" height="280" rx="28" fill="#ffffff" opacity="0.06" stroke="#ffffff" stroke-opacity="0.14"/>
    <rect x="36" y="44" width="240" height="22" rx="10" fill="#7cdbff" opacity="0.30"/>
    <rect x="36" y="88" width="320" height="18" rx="9" fill="#ffffff" opacity="0.10"/>
    <rect x="36" y="118" width="280" height="18" rx="9" fill="#ffffff" opacity="0.09"/>
    <rect x="36" y="160" width="140" height="34" rx="17" fill="#b3ffcc" opacity="0.22"/>
    <rect x="186" y="160" width="120" height="34" rx="17" fill="#ffffff" opacity="0.06"/>
    <circle cx="382" cy="56" r="10" fill="#ffffff" opacity="0.16"/>
    <circle cx="410" cy="56" r="10" fill="#ffffff" opacity="0.12"/>
  </g>
  <text x="120" y="170" fill="#ffffff" opacity="0.92" font-size="58" font-family="ui-sans-serif, system-ui, -apple-system, Segoe UI, Roboto, Helvetica, Arial" font-weight="700">
    Uzbek Language Learning
  </text>
  <text x="120" y="230" fill="#ffffff" opacity="0.70" font-size="26" font-family="ui-sans-serif, system-ui, -apple-system, Segoe UI, Roboto, Helvetica, Arial">
    Learner‑centred · Task‑Based · Tech‑aware
  </text>
</svg>
